<svg id="圖層_1" data-name="圖層 1" xmlns="http://www.w3.org/2000/svg" xmlns:xlink="http://www.w3.org/1999/xlink" viewBox="0 0 3727.68 3174.7"><defs><style>.cls-1{opacity:0.6;}.cls-2{fill:#4ca8e0;}.cls-3{opacity:0.5;}.cls-4{fill:#f28cb1;}.cls-5{opacity:0.7;}.cls-6{fill:url(#linear-gradient);}.cls-7{fill:url(#linear-gradient-2);}.cls-8{fill:url(#linear-gradient-3);}.cls-9{fill:url(#linear-gradient-4);}.cls-10{fill:url(#linear-gradient-5);}.cls-11{opacity:0.3;}.cls-12{fill:url(#linear-gradient-6);}.cls-13{opacity:0.8;}.cls-14{fill:#eded94;}.cls-15,.cls-21{fill:#fff;}.cls-15,.cls-17,.cls-19,.cls-22{stroke:#59544f;}.cls-15,.cls-17,.cls-19,.cls-21,.cls-22,.cls-26{stroke-miterlimit:10;}.cls-15,.cls-19,.cls-21,.cls-22,.cls-26{stroke-width:3px;}.cls-16,.cls-22{fill:#9b3af6;}.cls-17,.cls-19,.cls-26{fill:none;}.cls-17{stroke-width:3.21px;}.cls-18,.cls-23,.cls-28{fill:#5f0ac7;}.cls-20{fill:#f2e6ff;}.cls-21,.cls-26{stroke:#fff;}.cls-23{font-size:34.53px;letter-spacing:0.09em;}.cls-23,.cls-27{font-family:GOGOIA-Deco, GOGOIA Deco;}.cls-24{letter-spacing:0.05em;}.cls-25{letter-spacing:0.06em;}.cls-27{font-size:48.12px;fill:#595551;}.cls-28{font-size:80px;font-family:GenJyuuGothic-Bold, GenJyuuGothic Bold;font-weight:700;letter-spacing:0.09em;}.cls-29{font-size:50px;fill:#59544f;letter-spacing:0.08em;}.cls-30{letter-spacing:0.06em;}.cls-31{letter-spacing:-0.4em;}.cls-32{letter-spacing:0.08em;}.cls-33{letter-spacing:0.06em;}.cls-34{letter-spacing:-0.41em;}.cls-35{letter-spacing:0.06em;}.cls-36{letter-spacing:-0.4em;}.cls-37{letter-spacing:-0.4em;}</style><linearGradient id="linear-gradient" x1="-35.46" y1="3660.98" x2="391.68" y2="3660.98" gradientUnits="userSpaceOnUse"><stop offset="0" stop-color="#fff"/><stop offset="1" stop-color="#ea94a2"/></linearGradient><linearGradient id="linear-gradient-2" x1="-142.32" y1="5390.61" x2="282.59" y2="5390.61" gradientUnits="userSpaceOnUse"><stop offset="0" stop-color="#e8eb96"/><stop offset="0.83" stop-color="#4ca8e0"/></linearGradient><linearGradient id="linear-gradient-3" x1="3081.47" y1="4753.31" x2="3480.74" y2="4753.31" gradientUnits="userSpaceOnUse"><stop offset="0" stop-color="#eded94"/><stop offset="0.78" stop-color="#ea94a2"/></linearGradient><linearGradient id="linear-gradient-4" x1="2942.56" y1="5067.79" x2="3227.98" y2="5067.79" xlink:href="#linear-gradient-3"/><linearGradient id="linear-gradient-5" x1="-194.21" y1="3305.58" x2="229.58" y2="3305.58" gradientUnits="userSpaceOnUse"><stop offset="0" stop-color="#eded94"/><stop offset="1" stop-color="#ea94a2"/></linearGradient><linearGradient id="linear-gradient-6" x1="118.22" y1="5727.08" x2="439.11" y2="5727.08" gradientUnits="userSpaceOnUse"><stop offset="0" stop-color="#e8eb96"/><stop offset="0.09" stop-color="#dfe79a"/><stop offset="0.24" stop-color="#c6dca6"/><stop offset="0.42" stop-color="#9dcbba"/><stop offset="0.64" stop-color="#65b3d4"/><stop offset="0.73" stop-color="#4ca8e0"/></linearGradient></defs><title>first</title><g class="cls-1"><path class="cls-2" d="M650.64,5986.09c109.21,71.59,217.22,145,325,218.78q46.1,31.56,92.15,63.19,51.66,32.88,111.54,35.6,59.82,13.4,119.63-5.36,58.56-13.92,102-53.7,49-31.73,77.27-84.17l30.24-71.66a302.11,302.11,0,0,0,0-159.51l-30.24-71.66A301.51,301.51,0,0,0,1370.58,5750c-108.16-74.22-216.32-148.46-325.42-221.29q-45.72-30.51-91.69-60.67-51.66-32.88-111.54-35.6-59.82-13.4-119.63,5.36-58.56,13.92-102,53.7-49,31.72-77.27,84.17l-30.24,71.66a302.07,302.07,0,0,0,0,159.5L543,5878.47a301.48,301.48,0,0,0,107.63,107.62Z" transform="translate(220.68 -3134.54)"/></g><g class="cls-3"><path class="cls-4" d="M575.39,3813.52c109.21,71.59,217.22,145,325,218.78q46.1,31.56,92.15,63.18,51.64,32.89,111.54,35.6,59.81,13.4,119.63-5.35,58.56-13.93,102-53.7,49-31.72,77.27-84.17l30.24-71.67a302.07,302.07,0,0,0,0-159.5L1403,3685a301.51,301.51,0,0,0-107.63-107.63c-108.16-74.22-216.32-148.46-325.42-221.29q-45.72-30.53-91.69-60.67-51.66-32.88-111.54-35.6-59.82-13.4-119.63,5.36-58.56,13.92-102,53.69-49,31.74-77.27,84.17l-30.24,71.67a302.07,302.07,0,0,0,0,159.5l30.24,71.67a301.48,301.48,0,0,0,107.63,107.62Z" transform="translate(220.68 -3134.54)"/></g><g class="cls-5"><path class="cls-6" d="M-53.24,3558.85c109.22,71.59,217.22,145,325,218.78q46.09,31.56,92.15,63.19c9.22,6.32,24.22,7.41,34.67,4.53s21.75-10.94,26.9-20.68c5.51-10.44,8.28-23.09,4.53-34.67s-10.59-20-20.68-26.9C301.14,3688.88,193,3614.65,83.88,3541.81q-45.72-30.51-91.69-60.67c-9.47-6.21-24-7.48-34.68-4.53-10.44,2.87-21.75,10.94-26.89,20.68-11.88,22.49-4.91,47.76,16.14,61.56Z" transform="translate(220.68 -3134.54)"/></g><g class="cls-3"><path class="cls-7" d="M-156.15,5279.9c109.21,71.58,217.22,145,325,218.77q46.11,31.56,92.15,63.19c7.17,4.92,18.84,5.77,27,3.53s16.92-8.52,20.92-16.09c9.4-17.79,3.6-36.8-12.56-47.88C188.13,5427.19,80,5353-29.13,5280.13q-45.72-30.53-91.69-60.68c-15.34-10.06-39.37-3.57-47.89,12.56-9.24,17.49-3.82,37.15,12.56,47.89Z" transform="translate(220.68 -3134.54)"/></g><g class="cls-3"><path class="cls-8" d="M3106.52,4932.68c100.53-83.57,202.45-165.45,304.65-247q43.5-34.71,87-69.35c5.61-4.47,8.79-14.38,8.79-21.21,0-7.36-3.27-16.15-8.79-21.21-5.72-5.25-13.22-9.15-21.21-8.79-8.45.38-14.65,3.56-21.22,8.79-102.74,81.79-205.5,163.57-307.18,246.67q-42.41,34.65-84.52,69.64c-5.59,4.65-8.79,14.23-8.79,21.22,0,7.35,3.27,16.14,8.79,21.21,5.72,5.25,13.22,9.14,21.21,8.79,8.36-.38,14.79-3.45,21.22-8.79Z" transform="translate(220.68 -3134.54)"/></g><g class="cls-3"><path class="cls-9" d="M2960.51,5196.62c71.84-60,144.67-118.85,217.71-177.41q31.11-25,62.27-49.87c8.81-7.05,7.9-23.13,0-30.38-9.36-8.59-21-7.53-30.39,0-73.42,58.75-146.86,117.5-219.52,177.19q-30.33,24.92-60.46,50.08c-8.66,7.23-8,23,0,30.39,9.21,8.45,21.15,7.71,30.39,0Z" transform="translate(220.68 -3134.54)"/></g><g class="cls-3"><path class="cls-10" d="M-206.07,3190.46c109.22,71.59,217.23,145,325,218.78q46.1,31.56,92.15,63.18c13,8.91,33.85,2.86,41-10.76,8.06-15.25,3.09-31.54-10.76-41C133.17,3346.39,25,3272.16-84.09,3199.33q-45.72-30.52-91.69-60.68c-13.15-8.62-33.74-3.06-41.05,10.77-7.92,15-3.27,31.84,10.76,41Z" transform="translate(220.68 -3134.54)"/></g><g class="cls-11"><path class="cls-12" d="M110.28,5640c82.91,53,164.94,107.4,246.77,162.07q34.89,23.31,69.74,46.66c8.72,5.83,22.53,2,27.37-7.18,5.32-10.07,2.12-21.13-7.18-27.36-82.14-55-164.28-110-247.12-163.94q-34.61-22.54-69.4-44.79c-8.83-5.65-22.45-2.12-27.36,7.17a20.44,20.44,0,0,0,7.18,27.37Z" transform="translate(220.68 -3134.54)"/></g><g class="cls-13"><path class="cls-14" d="M2640.35,4371.05c-109.22,71.59-217.22,145-325,218.77q-46.1,31.58-92.15,63.19-52.44,28.27-84.17,77.27-39.76,43.46-53.7,102-18.75,59.82-5.35,119.63,2.72,59.88,35.6,111.54l46.91,60.72a299.78,299.78,0,0,0,132.38,77.15l79.75,10.71a298.49,298.49,0,0,0,151.41-41c108.16-74.22,216.32-148.45,325.43-221.29q45.72-30.51,91.69-60.67,52.44-28.28,84.17-77.27,39.77-43.45,53.7-102,18.75-59.81,5.35-119.63-2.71-59.88-35.6-111.53L3003.89,4418a299.63,299.63,0,0,0-132.38-77.15l-79.75-10.72a298.59,298.59,0,0,0-151.41,41Z" transform="translate(220.68 -3134.54)"/></g><polygon class="cls-15" points="964.6 2639.92 1028.61 2639.92 1043.11 3072.35 945.31 3072.35 964.6 2639.92"/><rect class="cls-15" x="994.21" y="2946.33" width="411.54" height="126.02"/><polygon class="cls-15" points="1083.64 2745.81 1069.95 2893.98 1136.79 2893.98 1123.1 2745.81 1083.64 2745.81"/><polygon class="cls-15" points="1180.25 2745.81 1166.56 2893.98 1233.4 2893.98 1219.71 2745.81 1180.25 2745.81"/><polygon class="cls-15" points="1276.86 2745.81 1263.17 2893.98 1330.01 2893.98 1316.32 2745.81 1276.86 2745.81"/><rect class="cls-16" x="1058.07" y="2973.5" width="14.5" height="31.41"/><rect class="cls-16" x="1096.12" y="2973.5" width="14.49" height="31.41"/><rect class="cls-16" x="1134.17" y="2973.5" width="14.49" height="31.41"/><rect class="cls-16" x="1172.22" y="2973.5" width="14.49" height="31.41"/><rect class="cls-16" x="1210.27" y="2973.5" width="14.49" height="31.41"/><rect class="cls-16" x="1248.31" y="2973.5" width="14.5" height="31.41"/><rect class="cls-16" x="1286.36" y="2973.5" width="14.5" height="31.41"/><rect class="cls-16" x="1324.41" y="2973.5" width="14.49" height="31.41"/><path class="cls-15" d="M777.85,5774.46s1.42,0,0-6.06-30-7.12-22.55-37.06c7.49-30.21,45.65-22.51,45.65-22.51s4-47.51,48.32-26.57c0,0,13.69-65.23,82.94-33.82,0,0,40.18-67,110.28-8.55,0,0,69.3-69.56,146.6,2.11s-22.21,251.35-155.18,143.08c0,0-11.51-11.83-12.31-18.67,0,0-50.33,28.59-90.19-18.52,0,0-43.08,21.34-76.1-12.89,0,0-11.67,22.53-36,10.37,0,0-16.17.8-11.49,16,1.75,5.72-2.41,13.05-2.41,13.05H777.85" transform="translate(220.68 -3134.54)"/><polygon class="cls-15" points="956 3072.35 956 2939.08 855.75 2939.08 855.75 2983.09 883.53 2983.09 883.53 3072.35 956 3072.35"/><rect class="cls-15" x="983.36" y="2893.98" width="433.23" height="52.34"/><polygon class="cls-15" points="1673.36 2668.88 1474.1 2780.29 1474.1 3069.53 1510.53 3069.53 1510.53 2818.85 1838.33 2818.85 1838.33 3069.53 1875.83 3069.53 1875.63 2779.75 1673.36 2668.88"/><rect class="cls-16" x="1638.54" y="2762.07" width="74.72" height="34.55"/><rect class="cls-17" x="1510.52" y="2818.85" width="327.81" height="29.19"/><rect class="cls-15" x="1510.52" y="2848.05" width="327.81" height="30.53"/><rect class="cls-15" x="1645.77" y="2983.02" width="87.58" height="86.51"/><rect class="cls-18" x="1674.43" y="2983.02" width="31.6" height="24.91"/><rect class="cls-15" x="1733.35" y="2983.02" width="87.58" height="86.51"/><rect class="cls-18" x="1762" y="2983.02" width="31.6" height="24.91"/><rect class="cls-15" x="1733.35" y="2896.52" width="87.58" height="86.51"/><rect class="cls-18" x="1762" y="2896.52" width="31.6" height="24.91"/><text x="220.68" y="-3134.54"></text><rect class="cls-15" x="2529.34" y="1574.21" width="518.03" height="324.86"/><path class="cls-19" d="M2344.4,4708.75h49.23s6.3,42.56-24.77,42.56C2356.79,4751.31,2340.79,4740.67,2344.4,4708.75Z" transform="translate(220.68 -3134.54)"/><path class="cls-19" d="M2445,4708.75h49.24s6.29,42.56-24.77,42.56C2457.34,4751.31,2441.34,4740.67,2445,4708.75Z" transform="translate(220.68 -3134.54)"/><path class="cls-19" d="M2545.51,4708.75h49.23s6.29,42.56-24.77,42.56C2557.9,4751.31,2541.9,4740.67,2545.51,4708.75Z" transform="translate(220.68 -3134.54)"/><path class="cls-19" d="M2646.06,4708.75h49.24s6.29,42.56-24.78,42.56C2658.45,4751.31,2642.45,4740.67,2646.06,4708.75Z" transform="translate(220.68 -3134.54)"/><rect class="cls-15" x="2529.34" y="1899.07" width="518.03" height="16.37"/><rect class="cls-15" x="2514.28" y="1915.45" width="548.37" height="15.28"/><rect class="cls-15" x="2898.23" y="1653.52" width="114.23" height="245.56"/><rect class="cls-16" x="2912.19" y="1668.07" width="85.03" height="160.07"/><rect class="cls-18" x="2569.36" y="1653.52" width="288.12" height="190.63"/><rect class="cls-20" x="2589.7" y="1671.71" width="250.5" height="156.43"/><path class="cls-19" d="M2746.65,4708.75h52.26s6.68,42.56-26.29,42.56C2759.8,4751.31,2742.81,4740.67,2746.65,4708.75Z" transform="translate(220.68 -3134.54)"/><polygon class="cls-21" points="3048.73 1572.71 2519.23 1572.71 2533.19 1497.04 3030.1 1497.04 3048.73 1572.71"/><polygon class="cls-16" points="2529.34 1498.54 2514.79 1574.21 2564.03 1574.21 2578.08 1498.54 2529.34 1498.54"/><polygon class="cls-16" points="2625.02 1498.54 2614.31 1574.21 2665.63 1574.21 2673.76 1498.54 2625.02 1498.54"/><polygon class="cls-16" points="2719.47 1498.54 2714.87 1574.21 2765.14 1574.21 2768.22 1498.54 2719.47 1498.54"/><polygon class="cls-16" points="2814.69 1498.54 2816.46 1574.21 2865.7 1574.21 2863.44 1498.54 2814.69 1498.54"/><polygon class="cls-16" points="2910.69 1498.54 2915.97 1574.21 2966.25 1574.21 2959.44 1498.54 2910.69 1498.54"/><polygon class="cls-16" points="3004.27 1498.54 3019.82 1574.21 3066.8 1574.21 3046.86 1498.54 3004.27 1498.54"/><path class="cls-16" d="M2294.12,4708.75h49.24s6.29,42.56-24.77,42.56C2306.51,4751.31,2290.51,4740.67,2294.12,4708.75Z" transform="translate(220.68 -3134.54)"/><path class="cls-16" d="M2394.4,4708.75h49.51s6.33,42.56-24.91,42.56C2406.85,4751.31,2390.76,4740.67,2394.4,4708.75Z" transform="translate(220.68 -3134.54)"/><path class="cls-16" d="M2495.23,4708.75h49.24s6.29,42.56-24.77,42.56C2507.62,4751.31,2491.62,4740.67,2495.23,4708.75Z" transform="translate(220.68 -3134.54)"/><path class="cls-16" d="M2595.78,4708.75H2645s6.29,42.56-24.77,42.56C2608.17,4751.31,2592.17,4740.67,2595.78,4708.75Z" transform="translate(220.68 -3134.54)"/><path class="cls-16" d="M2696.33,4708.75h49.24s6.29,42.56-24.77,42.56C2708.73,4751.31,2692.73,4740.67,2696.33,4708.75Z" transform="translate(220.68 -3134.54)"/><path class="cls-16" d="M2796.89,4708.75h49.24s6.29,42.56-24.77,42.56C2809.28,4751.31,2793.28,4740.67,2796.89,4708.75Z" transform="translate(220.68 -3134.54)"/><rect class="cls-15" x="2529.34" y="1466.53" width="518.03" height="32.01"/><path class="cls-19" d="M2488.92,4834s5-7,9.46-.74c3.12,4.37-4.91,10.4-4.91,10.4v4.5l-14.25,6.72" transform="translate(220.68 -3134.54)"/><line class="cls-19" x1="2714.15" y1="1713.6" x2="2727.32" y2="1720.87"/><path class="cls-16" d="M2471.43,4851.22l-25.9,24.69,13,16.09,12.73-9.95-3.87,54,53.91-.29-4.3-55,11,8,11.92-14.56-25.52-23.23s-12.53,5.12-21.69,5.17C2483.21,4856.15,2471.43,4851.22,2471.43,4851.22Z" transform="translate(220.68 -3134.54)"/><rect class="cls-15" x="2070.32" y="1589.07" width="411.58" height="311.09"/><path class="cls-19" d="M1851.35,4723.61h55.49s7.09,40.76-27.92,40.76C1865.32,4764.37,1847.29,4754.17,1851.35,4723.61Z" transform="translate(220.68 -3134.54)"/><path class="cls-19" d="M1967.15,4723.61H2025s7.4,40.76-29.12,40.76C1981.72,4764.37,1962.91,4754.17,1967.15,4723.61Z" transform="translate(220.68 -3134.54)"/><path class="cls-19" d="M2085.38,4723.61h57.88s7.41,40.76-29.12,40.76C2100,4764.37,2081.13,4754.17,2085.38,4723.61Z" transform="translate(220.68 -3134.54)"/><path class="cls-19" d="M2203.58,4723.61h55.67s7.11,40.76-28,40.76C2217.59,4764.37,2199.5,4754.17,2203.58,4723.61Z" transform="translate(220.68 -3134.54)"/><rect class="cls-22" x="2070.32" y="1900.16" width="411.58" height="15.68"/><rect class="cls-15" x="2055.89" y="1915.84" width="443.27" height="14.63"/><rect class="cls-19" x="2102.97" y="1665.01" width="109.38" height="235.15"/><rect class="cls-16" x="2116.95" y="1678.94" width="81.43" height="65.67"/><path class="cls-16" d="M1908,4723.61h57.89s7.4,40.76-29.12,40.76C1922.61,4764.37,1903.8,4754.17,1908,4723.61Z" transform="translate(220.68 -3134.54)"/><path class="cls-16" d="M2026.27,4723.61h57.88s7.4,40.76-29.12,40.76C2040.83,4764.37,2022,4754.17,2026.27,4723.61Z" transform="translate(220.68 -3134.54)"/><path class="cls-16" d="M2144.49,4723.61h57.89s7.4,40.76-29.13,40.76C2159.06,4764.37,2140.25,4754.17,2144.49,4723.61Z" transform="translate(220.68 -3134.54)"/><rect class="cls-15" x="2070.32" y="1485.95" width="411.58" height="30.66"/><rect class="cls-15" x="2070.32" y="1516.61" width="411.58" height="72.46"/><path class="cls-19" d="M2102.67,4907.43H2020.9V4815.6s19.63-20.41,40.88-20.41c26.14,0,40.89,20.41,40.89,20.41Z" transform="translate(220.68 -3134.54)"/><line class="cls-19" x1="2241.58" y1="1725.09" x2="2323.35" y2="1725.09"/><path class="cls-19" d="M2231.42,4907.34h-81.77v-91.83s19.63-20.4,40.88-20.4c26.14,0,40.89,20.4,40.89,20.4Z" transform="translate(220.68 -3134.54)"/><line class="cls-19" x1="2370.33" y1="1725.01" x2="2452.09" y2="1725.01"/><text class="cls-23" transform="translate(2205.57 1562.82)">C<tspan class="cls-24" x="22.96" y="0">L</tspan><tspan class="cls-25" x="40.85" y="0">O</tspan><tspan x="66.72" y="0">TH SHOP</tspan></text><rect class="cls-15" x="1096.05" y="327.3" width="408.05" height="547.69"/><rect class="cls-15" x="1504.1" y="504.89" width="246.73" height="370.1"/><rect class="cls-15" x="1126.1" y="297.47" width="347.95" height="29.82"/><rect class="cls-15" x="1169.48" y="236.92" width="261.19" height="60.55"/><rect class="cls-19" x="1126.1" y="372.49" width="63.49" height="63.49"/><rect class="cls-19" x="1268.33" y="372.49" width="63.49" height="63.49"/><rect class="cls-19" x="1405.14" y="372.49" width="63.49" height="63.49"/><rect class="cls-19" x="1126.1" y="499.92" width="63.49" height="63.49"/><rect class="cls-19" x="1268.33" y="499.92" width="63.49" height="63.49"/><rect class="cls-19" x="1405.14" y="499.92" width="63.49" height="63.49"/><rect class="cls-19" x="1126.1" y="627.35" width="63.49" height="63.49"/><rect class="cls-19" x="1268.33" y="627.35" width="63.49" height="63.49"/><rect class="cls-19" x="1405.14" y="627.35" width="63.49" height="63.49"/><rect class="cls-19" x="1126.1" y="754.79" width="63.49" height="63.49"/><rect class="cls-19" x="1405.14" y="754.79" width="63.49" height="63.49"/><rect class="cls-16" x="1228.23" y="754.79" width="143.7" height="120.2"/><line class="cls-26" x1="1300.08" y1="754.79" x2="1300.08" y2="874.99"/><rect class="cls-16" x="1586.8" y="536.07" width="81.34" height="81.34"/><rect class="cls-18" x="1586.8" y="649.27" width="81.34" height="81.34"/><rect class="cls-19" x="1580.7" y="770.15" width="93.54" height="104.84"/><rect class="cls-15" x="1523.21" y="350.09" width="208.52" height="120.32"/><rect class="cls-15" x="1547.16" y="470.41" width="11.58" height="34.48"/><rect class="cls-15" x="1694.22" y="470.41" width="11.58" height="34.48"/><text class="cls-27" transform="translate(1234.17 284.45)">EGGPLANT</text><text x="220.68" y="-3134.54"></text><text class="cls-28" transform="translate(2324.42 472.85)">關於茄子切貨網<tspan class="cls-29"><tspan x="0" y="144">茄子切貨網成立於２０１８</tspan><tspan class="cls-30" x="645.6" y="144">年</tspan><tspan class="cls-31" x="698.4" y="144">，</tspan><tspan class="cls-32" x="728.2" y="144">期許能為供</tspan><tspan x="0" y="216">應商解決切貨品囤積問</tspan><tspan class="cls-33" x="538" y="216">題</tspan><tspan class="cls-34" x="590.8" y="216">，</tspan><tspan class="cls-35" x="620.1" y="216">以</tspan><tspan class="cls-32" x="672.9" y="216">及讓批發商藉</tspan><tspan x="0" y="288">此平台購買到更多樣化且平價之商</tspan><tspan class="cls-33" x="807" y="288">品</tspan><tspan class="cls-36" x="859.8" y="288">。</tspan></tspan></text><text class="cls-28" transform="translate(799.55 1618.56)">最快速方便的好夥伴<tspan class="cls-29"><tspan x="0" y="144">批發商藉此平台在家也能快速的找到所需要</tspan><tspan x="0" y="216">的商</tspan><tspan class="cls-30" x="107.6" y="216">品</tspan><tspan class="cls-31" x="160.4" y="216">，</tspan><tspan class="cls-32" x="190.2" y="216">並透過宅配的方式寄送到家</tspan><tspan class="cls-33" x="835.8" y="216">裡</tspan><tspan class="cls-37" x="888.6" y="216">。</tspan></tspan></text><text class="cls-28" transform="translate(2324.42 2680.45)">時尚與品質的保證<tspan class="cls-29"><tspan x="0" y="144">本網站之商品皆為各大紡織廠的切貨</tspan><tspan class="cls-33" x="860.8" y="144">品</tspan><tspan class="cls-36" x="913.6" y="144">，</tspan><tspan x="943.4" y="144">品</tspan><tspan x="0" y="216">質的保證也透過茄子切貨網的認可與保</tspan><tspan class="cls-30" x="914.6" y="216">證</tspan><tspan class="cls-31" x="967.4" y="216">，</tspan><tspan x="0" y="288">讓批發商能買得安心又開</tspan><tspan class="cls-33" x="591.8" y="288">心</tspan><tspan class="cls-36" x="644.6" y="288">。</tspan></tspan></text><text x="220.68" y="-3134.54"></text></svg>